<?xml version="1.0" encoding="UTF-8"?>
<!DOCTYPE xml>
<svg xmlns="http://www.w3.org/2000/svg" viewBox="0 0 370 91.23342215416514" class="css-1j8o68f">
    <defs id="SvgjsDefs3164">
        <linearGradient id="SvgjsLinearGradient3171">
            <stop id="SvgjsStop3172" stop-color="#834f2a" offset="0"></stop>
            <stop id="SvgjsStop3173" stop-color="#dba173" offset="0.5"></stop>
            <stop id="SvgjsStop3174" stop-color=" #834F2A" offset="1"></stop>
        </linearGradient>
    </defs>
    <g id="SvgjsG3165" featurekey="symbolFeature-0"
        transform="matrix(2.6456646504194734,0,0,2.6456646504194734,1.6493627943515253e-7,11.132493154642894)"
        fill="url(#SvgjsLinearGradient3171)">
        <g xmlns="http://www.w3.org/2000/svg" transform="translate(0 -270.54)">
            <path
                d="m13.229 270.49c-2.4471 2e-3 -4.7297 1.4638-6.1444 3.891-0.22006-0.0251-0.44106-0.0415-0.6626-0.0438a0.19457 0.19457 0 0 0-2e-3 0c-3.5434 0-6.42 2.8766-6.42 6.42a0.19457 0.19457 0 0 0 0 3.1e-4c0.0034 2.4901 1.4487 4.7475 3.6964 5.8011v7.8832c-0.43654 0.0825-0.77819 0.4368-0.77819 0.87736v0.15435c0 0.50426 0.44754 0.8956 0.97273 0.8956h7.9965c0.30194 0.41509 0.79099 0.686 1.3418 0.686s1.0399-0.27091 1.3418-0.686h7.9964c0.52519 0 0.97273-0.39134 0.97273-0.8956v-0.15435c0-0.44056-0.34165-0.79487-0.77819-0.87736v-7.88c2.2488-1.0542 3.6943-3.3132 3.6964-5.8045a0.19457 0.19457 0 0 0 0-1.6e-4c0-3.5434-2.8767-6.42-6.42-6.42a0.19457 0.19457 0 0 0-0.0014 0c-0.22397 2e-3 -0.44745 0.0178-0.66997 0.0429-1.4134-2.4244-3.6929-3.8856-6.1373-3.8901a0.19457 0.19457 0 0 0-5.33e-4 0zm-2.34e-4 0.3891h5.33e-4c2.3232 4e-3 4.5102 1.4091 5.8617 3.7966 0.8525 1.8578 0.95252 2.0125 1.34 3.95a0.19465 0.19465 0 1 0 0.38172-0.0764c-0.37101-1.855-0.51126-2.1698-1.2595-3.799 0.16146-0.0143 0.32342-0.0228 0.48561-0.024 3.3328 3e-4 6.0303 2.698 6.0303 6.0309-2e-3 2.3817-1.4045 4.5382-3.5809 5.5057a0.19457 0.19457 0 0 0-0.11551 0.17775v7.9052h-7.8617c-0.26762-0.32587-0.65666-0.54829-1.0969-0.59754-0.02587-3e-3 -0.05192-5e-3 -0.07812-7e-3 -0.0057-3.9e-4 -0.01133-9.7e-4 -0.01702-1e-3 -0.02197-1e-3 -0.04415-2e-3 -0.06634-2e-3 -0.0078-1.2e-4 -0.01552-6.8e-4 -0.02333-6.9e-4a0.19457 0.19457 0 0 0-5.33e-4 0c-0.0077 1e-5 -0.01528 5.7e-4 -0.02295 6.9e-4 -0.02233 3.1e-4 -0.0446 7.8e-4 -0.06672 2e-3 -0.0061 3.5e-4 -0.0122 9.6e-4 -0.01832 1e-3 -0.02533 2e-3 -0.05053 4e-3 -0.07554 6e-3 -0.0017 1.9e-4 -0.0034 4.8e-4 -0.0051 6.8e-4 -0.43868 0.0501-0.82626 0.27216-1.0931 0.59709h-7.8617v-7.9085a0.19457 0.19457 0 0 0-0.11551-0.17775c-2.1753-0.96709-3.5775-3.1219-3.5809-5.5024v-2.3e-4c1.16e-4 -3.3327 2.6974-6.0301 6.03-6.0306 0.16092 2e-3 0.32161 0.0104 0.48181 0.0249-0.72045 1.6085-0.88408 1.9423-1.2553 3.7983a0.19457 0.19457 0 1 0 0.38142 0.0761c0.38717-1.9358 0.51526-2.116 1.3342-3.9504 1.3527-2.3895 3.5423-3.7942 5.8676-3.7962zm-7.8003 11.186a0.19457 0.19457 0 0 0-0.19158 0.19736c0 2.4069 0.48382 4.6459 1.3178 6.5145a0.19457 0.19457 0 1 0 0.35528-0.15852c-0.80966-1.8141-1.2842-4.0013-1.2842-6.356a0.19457 0.19457 0 0 0-0.19736-0.19736zm15.495 0a0.19457 0.19457 0 0 0-0.19158 0.19736c0 2.4075-0.49595 4.64-1.339 6.4775a0.19457 0.19457 0 1 0 0.3536 0.16225c0.86873-1.8934 1.3744-4.1789 1.3744-6.6397a0.19457 0.19457 0 0 0-0.19736-0.19736zm-7.6973 1.9284a0.19457 0.19457 0 0 0-0.19158 0.19705v6.2256a0.19457 0.19457 0 1 0 0.38887 0v-6.2256a0.19457 0.19457 0 0 0-0.19728-0.19705zm0.0027 10.133c0.40762 7.4e-4 0.78969 0.19676 1.028 0.52748a0.19457 0.19457 0 0 0 0.01915 0.0223c0.0061 9e-3 0.0121 0.018 0.01801 0.0271a0.19457 0.19457 0 0 0 0.0098 0.0181c0.10921 0.17371 0.17414 0.37084 0.19044 0.57437 5.09e-4 7e-3 1e-3 0.0131 0.0014 0.0198 0.0016 0.0241 0.0024 0.0483 0.0026 0.0725 1.6e-5 3e-3 2.33e-4 5e-3 2.33e-4 8e-3 0 2e-3 -1.55e-4 4e-3 -1.55e-4 6e-3 -1.95e-4 0.0262-0.0012 0.0524-3e-3 0.0784-2.34e-4 3e-3 -5.1e-4 7e-3 -7.59e-4 0.0103-0.01589 0.20553-0.08144 0.40462-0.19196 0.57976a0.19457 0.19457 0 0 0-0.01322 0.0253c-0.22664 0.34378-0.61604 0.56988-1.0605 0.56988-0.44684 0-0.83805-0.22855-1.0642-0.57543a0.19457 0.19457 0 0 0-0.01056-0.0195c-0.11091-0.17637-0.17638-0.37686-0.19143-0.58371-6.2e-5 -9.2e-4 -1.68e-4 -2e-3 -2.3e-4 -3e-3 -0.0021-0.0292-0.0032-0.0586-0.0032-0.088 5.89e-4 -0.23879 0.06848-0.47258 0.19592-0.67453a0.19457 0.19457 0 0 0 0.01368-0.0263c0.0043-7e-3 0.0086-0.0131 0.01307-0.0195a0.19457 0.19457 0 0 0 0.01854-0.022c0.23837-0.33083 0.62061-0.52691 1.0284-0.52748zm-9.3382 0.68601h7.786c-0.06448 0.17066-0.10128 0.35459-0.10556 0.5464-3.26e-4 0.0123-9.61e-4 0.0245-9.87e-4 0.0368a0.19457 0.19457 0 0 0 0 6.1e-4c2.2e-5 0.0254 6.83e-4 0.0508 2e-3 0.0761 0.0081 0.17779 0.04446 0.34832 0.10457 0.50741h-7.786c-0.33704 0-0.58364-0.23406-0.58364-0.5065v-0.15435c0-0.27243 0.24658-0.50643 0.58364-0.50643zm10.89 0h7.786c0.33706 0 0.58364 0.23399 0.58364 0.50642v0.15435c0 0.27244-0.2466 0.5065-0.58364 0.5065h-7.786c0.06807-0.18015 0.10575-0.375 0.10639-0.57839 5e-6 -2e-3 1.56e-4 -3e-3 1.56e-4 -5e-3a0.19457 0.19457 0 0 0 0-4.5e-4c0-4e-3 -2.73e-4 -7e-3 -3.12e-4 -0.0109-1.55e-4 -0.0215-5.21e-4 -0.0429-0.0016-0.0642-8e-3 -0.17818-0.04441-0.34907-0.10464-0.50848z"
                color="" color-rendering="auto" dominant-baseline="auto" image-rendering="auto"
                shape-rendering="auto" solid-color=""
                style="font-feature-settings:normal;font-variant-alternates:normal;font-variant-caps:normal;font-variant-ligatures:normal;font-variant-numeric:normal;font-variant-position:normal;isolation:auto;mix-blend-mode:normal;paint-order:stroke fill markers;shape-padding:0;text-decoration-color:;text-decoration-line:none;text-decoration-style:solid;text-indent:0;text-orientation:mixed;text-transform:none;white-space:normal;"></path>
        </g>
    </g>
    <g id="SvgjsG3166" featurekey="nameFeature-0"
        transform="matrix(1.3570040144218947,0,0,1.3570040144218947,90.13294375409272,-10.313229733122474)"
        fill="#e6cf8e">
        <path
            d="M1.6 23.16 c1.96 -11.16 2.76 -15.56 8.36 -15.56 c4.12 0 4.8 2.52 4 8.56 l-3.72 0 c0.6 -4.36 0.36 -5.36 -0.84 -5.36 c-1.84 0 -2.2 1.96 -4.04 12.36 c-2.04 11.56 -2.32 13.24 -0.48 13.24 c1.32 0 1.88 -1 2.88 -6.16 l3.76 0 c-1.56 7.4 -3.04 10.16 -7.36 10.16 c-5.6 0 -4.8 -4.44 -2.56 -17.24 z M15.360000000000001 23.16 l2.68 -15.16 l4 0 l-2.68 15.16 c-2.04 11.56 -2.32 13.24 -0.32 13.24 s2.28 -1.68 4.32 -13.24 l2.68 -15.16 l4 0 l-2.68 15.16 c-2.24 12.8 -3.04 17.24 -9.04 17.24 s-5.2 -4.44 -2.96 -17.24 z M28.2 40 l5.64 -32 l4 0 l-5.64 32 l-4 0 z M37.12 30.240000000000002 l4.04 0 c-0.84 5.16 -0.6 6.16 0.84 6.16 c1.96 0 2.24 -1.64 3 -6 c1.12 -6.4 -7.08 -4.68 -5.6 -13.2 c0.88 -5 1.72 -9.6 7.72 -9.6 c4.44 0 5.2 2.52 4.4 8.56 l-4 0 c0.6 -4.36 0.32 -5.36 -0.96 -5.36 c-1.96 0 -2.36 2.16 -3.12 6.4 c-1.08 6.2 7.28 4 5.64 13.2 c-0.96 5.6 -1.76 10 -7.8 10 c-4.64 0 -5.24 -2.76 -4.16 -10.16 z M50.599999999999994 40 l5.64 -32 l4 0 l-5.64 32 l-4 0 z M58.599999999999994 40 l5.64 -32 l3.6 0 l1.8 19.6 l0 -0.4 l3.4 -19.2 l4 0 l-5.64 32 l-3.6 0 l-2.12 -17.6 l-0.04 0.4 l-3.04 17.2 l-4 0 z M75.4 40 l5.64 -32 l9.2 0 l-0.56 3.2 l-5.2 0 l-1.84 10.4 l4.4 0 l-0.56 3.2 l-4.4 0 l-1.96 11.2 l5.2 0 l-0.72 4 l-9.2 0 z M98.75999999999999 23.16 c1.96 -11.16 2.76 -15.56 8.36 -15.56 c4.12 0 4.8 2.52 4 8.56 l-3.72 0 c0.6 -4.36 0.36 -5.36 -0.84 -5.36 c-1.84 0 -2.2 1.96 -4.04 12.36 c-2.04 11.56 -2.32 13.24 -0.48 13.24 c1.32 0 1.88 -1 2.88 -6.16 l3.76 0 c-1.56 7.4 -3.04 10.16 -7.36 10.16 c-5.6 0 -4.8 -4.44 -2.56 -17.24 z M112.32 23.16 c1.96 -11.16 3 -15.56 9 -15.56 s5.44 4.4 3.48 15.56 c-2.24 12.8 -3.28 17.24 -9.28 17.24 s-5.44 -4.44 -3.2 -17.24 z M116.24 36.4 c2.24 0 2.52 -1.68 4.56 -13.24 c1.84 -10.4 2.2 -12.36 -0.04 -12.36 s-2.6 1.96 -4.44 12.36 c-2.04 11.56 -2.32 13.24 -0.08 13.24 z M125.44000000000001 40 l5.64 -32 l3.6 0 l0.68 20 l0.4 0 l7.72 -20 l3.6 0 l-5.64 32 l-4 0 l2.8 -16 l-5.64 16 l-2.4 0 l0.04 -16 l-2.8 16 l-4 0 z M145.44 40 l5.64 -32 l6.48 0 c4.12 0 4.76 2.52 4 8.56 l-0.2 1.28 c-1.4 6.04 -2.92 8.56 -7.04 8.56 l-2.48 0 l-2.4 13.6 l-4 0 z M152.4 23.2 l2.48 0 c1.2 0 1.8 -1 2.76 -5.36 l0.2 -1.28 c0.6 -4.36 0.36 -5.36 -0.84 -5.36 l-2.48 0 z M160.24 40 l2.96 -16.8 c1.96 -11.16 2.76 -15.56 8.76 -15.56 s5.2 4.4 3.24 15.56 l-2.96 16.8 l-4 0 l1.64 -9.2 l-4 0 l-1.64 9.2 l-4 0 z M166.44000000000003 27.6 l4 0 l0.76 -4.4 c1.84 -10.4 2.16 -12.36 0.16 -12.36 s-2.32 1.96 -4.16 12.36 z M177.16000000000003 30.240000000000002 l4.04 0 c-0.84 5.16 -0.6 6.16 0.84 6.16 c1.96 0 2.24 -1.64 3 -6 c1.12 -6.4 -7.08 -4.68 -5.6 -13.2 c0.88 -5 1.72 -9.6 7.72 -9.6 c4.44 0 5.2 2.52 4.4 8.56 l-4 0 c0.6 -4.36 0.32 -5.36 -0.96 -5.36 c-1.96 0 -2.36 2.16 -3.12 6.4 c-1.08 6.2 7.28 4 5.64 13.2 c-0.96 5.6 -1.76 10 -7.8 10 c-4.64 0 -5.24 -2.76 -4.16 -10.16 z M191.56000000000003 30.240000000000002 l4.04 0 c-0.84 5.16 -0.6 6.16 0.84 6.16 c1.96 0 2.24 -1.64 3 -6 c1.12 -6.4 -7.08 -4.68 -5.6 -13.2 c0.88 -5 1.72 -9.6 7.72 -9.6 c4.44 0 5.2 2.52 4.4 8.56 l-4 0 c0.6 -4.36 0.32 -5.36 -0.96 -5.36 c-1.96 0 -2.36 2.16 -3.12 6.4 c-1.08 6.2 7.28 4 5.64 13.2 c-0.96 5.6 -1.76 10 -7.8 10 c-4.64 0 -5.24 -2.76 -4.16 -10.16 z"></path>
    </g>
    <g id="SvgjsG3167" featurekey="sloganFeature-0"
        transform="matrix(1.9044767834246452,0,0,1.9044767834246452,88.62877711550938,52.76298785973623)"
        fill="#e6cf8e">
        <path
            d="M0.72 20 l2.5 -14.2 l-2 0 l0.32 -1.8 l6 0 l-0.32 1.8 l-2 0 l-2.5 14.2 l-2 0 z M5.92 20 l1.48 -8.4 c0.98 -5.58 1.38 -7.78 4.38 -7.78 s2.6 2.2 1.62 7.78 l-1.48 8.4 l-2 0 l0.82 -4.6 l-2 0 l-0.82 4.6 l-2 0 z M9.02 13.8 l2 0 l0.38 -2.2 c0.92 -5.2 1.08 -6.18 0.08 -6.18 s-1.16 0.98 -2.08 6.18 z M14.38 15.120000000000001 l2.02 0 c-0.42 2.58 -0.3 3.08 0.42 3.08 c0.98 0 1.12 -0.82 1.5 -3 c0.56 -3.2 -3.54 -2.34 -2.8 -6.6 c0.44 -2.5 0.86 -4.8 3.86 -4.8 c2.22 0 2.6 1.26 2.2 4.28 l-2 0 c0.3 -2.18 0.16 -2.68 -0.48 -2.68 c-0.98 0 -1.18 1.08 -1.56 3.2 c-0.54 3.1 3.64 2 2.82 6.6 c-0.48 2.8 -0.88 5 -3.9 5 c-2.32 0 -2.62 -1.38 -2.08 -5.08 z M22.32 20 l2.5 -14.2 l-2 0 l0.32 -1.8 l6 0 l-0.32 1.8 l-2 0 l-2.5 14.2 l-2 0 z M27.52 20 l2.82 -16 l4.6 0 l-0.28 1.6 l-2.6 0 l-0.92 5.2 l2.2 0 l-0.28 1.6 l-2.2 0 l-0.98 5.6 l2.6 0 l-0.36 2 l-4.6 0 z M39.12 20 l2.5 -14.2 l-2 0 l0.32 -1.8 l6 0 l-0.32 1.8 l-2 0 l-2.5 14.2 l-2 0 z M44.32 20 l2.82 -16 l2 0 l-1.2 6.8 l2 0 l1.2 -6.8 l2 0 l-2.82 16 l-2 0 l1.34 -7.6 l-2 0 l-1.34 7.6 l-2 0 z M52.32 20 l2.82 -16 l4.6 0 l-0.28 1.6 l-2.6 0 l-0.92 5.2 l2.2 0 l-0.28 1.6 l-2.2 0 l-0.98 5.6 l2.6 0 l-0.36 2 l-4.6 0 z M63.72 20 l1.42 -16 l2.1 0 l-1.52 12.04 l0.2 0 l3.32 -12.04 l1.7 0 l-0.92 12.04 l0.2 0 l2.72 -12.04 l2.1 0 l-4.22 16 l-2.4 0 l0.34 -8.36 l-2.64 8.36 l-2.4 0 z M75.1 11.58 c0.98 -5.58 1.5 -7.78 4.5 -7.78 s2.72 2.2 1.74 7.78 c-1.12 6.4 -1.64 8.62 -4.64 8.62 s-2.72 -2.22 -1.6 -8.62 z M77.06 18.2 c1.12 0 1.26 -0.84 2.28 -6.62 c0.92 -5.2 1.1 -6.18 -0.02 -6.18 s-1.3 0.98 -2.22 6.18 c-1.02 5.78 -1.16 6.62 -0.04 6.62 z M81.66 20 l2.82 -16 l3.24 0 c2.06 0 2.54 1.26 2.12 3.68 c-0.4 2.18 -0.88 3.42 -1.6 4.02 l-0.02 0.12 c0.48 0.18 0.48 1.12 0.28 3.46 l-0.44 4.72 l-2 0 l0.58 -4.72 c0.28 -2.38 0 -2.88 -0.6 -2.88 l-1.04 0 l-1.34 7.6 l-2 0 z M85.28 10.8 l1.24 0 c0.7 0 1.02 -0.7 1.46 -3.12 c0.26 -1.58 0.06 -2.08 -0.54 -2.08 l-1.24 0 z M89.66 20 l2.82 -16 l2 0 l-2.46 14 l2.6 0 l-0.36 2 l-4.6 0 z M95.46 20 l2.82 -16 l3 0 c3 0 2.62 2.2 1.66 7.58 c-1.08 6.2 -1.48 8.42 -4.48 8.42 l-3 0 z M97.82 18 l1 0 c1.12 0 1.26 -0.84 2.24 -6.42 c0.88 -5 1.06 -5.98 -0.06 -5.98 l-1 0 z"></path>
    </g>
</svg>